<?xml version="1.0" encoding="UTF-8"?>
<svg version="1.1" viewBox="0 0 384 512" xmlns="http://www.w3.org/2000/svg">
 <!--! Font Awesome Pro 6.4.0 by @fontawesome - https://fontawesome.com License - https://fontawesome.com/license (Commercial License) Copyright 2023 Fonticons, Inc. -->
 <path d="m376.64 126.88c14.953-16.082 4.9818-40.702-9.9708-56.784-14.953-16.082-43.224-29.542-58.177-13.461l-113.5 127.12-110.63-123.01c-14.953-16.082-52.198-8.6035-67.15 7.4781-14.953 16.082-23.428 52.667-8.4752 68.749l116.11 123.01-116.49 124.63c-14.953 16.082-7.973 43.195 6.9796 59.277 14.953 16.082 44.221 26.052 59.174 9.9708l119.98-125.63 112.62 123.01c14.953 16.082 46.215 9.6006 61.168-6.481 14.953-16.082 19.938-46.186 4.9854-62.268l-112.62-125z"/>
</svg>
